<?xml version="1.0" standalone="no"?>
<!DOCTYPE svg PUBLIC "-//W3C//DTD SVG 20010904//EN"
 "http://www.w3.org/TR/2001/REC-SVG-20010904/DTD/svg10.dtd">
<svg version="1.0" xmlns="http://www.w3.org/2000/svg"
 width="576.000000pt" height="576.000000pt" viewBox="0 0 576.000000 576.000000"
 preserveAspectRatio="xMidYMid meet">
<metadata>
Created by potrace 1.11, written by Peter Selinger 2001-2013
</metadata>
<g transform="translate(0.000000,576.000000) scale(0.100000,-0.100000)"
fill="#000000" stroke="none">
<path d="M2 2903 l3 -2776 220 0 c121 1 225 2 232 2 9 1 12 570 12 2557 0
1406 2 2558 4 2560 2 2 36 -78 76 -179 85 -212 99 -245 113 -271 5 -10 11 -26
13 -35 4 -17 106 -265 130 -318 8 -17 15 -34 15 -38 0 -4 12 -35 26 -69 45
-104 51 -118 94 -226 23 -58 45 -114 50 -125 7 -17 26 -62 90 -220 4 -11 15
-36 23 -55 16 -39 108 -264 224 -550 41 -102 81 -198 88 -215 8 -16 28 -66 45
-110 40 -100 44 -112 63 -155 8 -19 39 -93 67 -165 29 -71 58 -143 65 -160 8
-16 35 -82 60 -145 26 -63 53 -128 60 -145 7 -16 22 -55 34 -85 12 -30 26 -64
30 -75 5 -11 20 -47 34 -80 14 -33 53 -130 87 -215 34 -85 68 -168 75 -185 8
-16 39 -93 70 -170 136 -336 166 -411 175 -430 5 -11 41 -99 80 -195 39 -96
79 -195 90 -220 20 -48 33 -79 83 -204 l32 -79 244 0 c229 0 244 1 254 19 6
10 12 24 13 29 3 10 98 244 114 280 5 11 34 83 65 160 31 77 60 149 65 160 35
79 47 114 42 119 -3 3 0 6 6 6 7 0 12 6 12 13 0 19 84 221 95 229 6 4 7 8 3 8
-5 0 30 90 105 270 5 14 11 30 12 35 2 6 12 30 23 55 11 25 60 142 107 260 48
118 92 226 98 240 6 14 11 27 11 30 1 3 9 24 18 45 27 63 169 409 172 420 3
11 12 32 34 85 8 19 30 73 48 120 19 47 41 99 49 117 8 17 15 34 15 38 0 6 7
23 45 110 34 79 65 161 65 173 0 6 4 12 8 12 5 0 9 6 9 13 1 6 20 57 43 112
23 55 88 215 145 355 57 140 117 287 133 327 16 40 27 75 24 78 -3 3 -1 5 5 5
6 0 14 12 18 27 3 15 14 45 24 68 10 22 35 83 56 135 21 52 42 99 46 104 5 6
9 16 9 24 0 8 7 28 15 45 7 18 35 84 60 147 25 63 50 124 55 135 5 11 25 61
45 110 19 50 40 98 45 107 6 10 10 22 10 28 0 6 9 29 19 53 11 23 34 78 52
122 17 44 35 83 38 87 3 4 6 -1145 6 -2552 0 -2041 3 -2560 13 -2561 16 -1
391 -1 440 0 l38 1 0 2773 -1 2772 -410 2 -410 3 -37 -93 c-20 -50 -42 -105
-49 -122 -7 -16 -13 -32 -14 -35 -1 -3 -9 -22 -18 -44 -9 -21 -17 -41 -17 -43
0 -3 -6 -19 -14 -36 -7 -18 -26 -63 -41 -102 -15 -38 -33 -83 -41 -100 -7 -16
-27 -66 -45 -110 -17 -44 -36 -91 -42 -105 -5 -14 -11 -29 -13 -35 -1 -5 -13
-35 -27 -65 -13 -30 -25 -57 -25 -60 -1 -8 -12 -36 -107 -270 -48 -118 -87
-221 -88 -227 0 -7 -4 -13 -9 -13 -4 0 -8 -5 -8 -12 0 -6 -59 -158 -131 -337
-72 -179 -196 -488 -275 -686 -79 -198 -148 -369 -153 -380 -14 -30 -302 -749
-305 -760 -2 -5 -8 -22 -14 -37 -6 -15 -34 -84 -62 -155 -29 -70 -58 -142 -66
-160 -8 -17 -14 -33 -14 -36 0 -2 -8 -22 -17 -43 -9 -22 -17 -41 -18 -44 -1
-3 -7 -18 -14 -35 -7 -16 -24 -59 -38 -95 -14 -36 -35 -87 -48 -115 -12 -27
-25 -61 -29 -75 -4 -14 -14 -38 -21 -55 -7 -16 -50 -122 -95 -235 -45 -113
-85 -211 -89 -218 -4 -7 -31 48 -66 135 -32 81 -69 171 -82 200 -12 28 -23 58
-23 65 0 8 -6 22 -13 33 -8 11 -21 40 -30 65 -13 37 -88 224 -122 305 -4 11
-9 22 -10 25 -1 3 -7 18 -13 33 -26 62 -53 129 -113 277 -34 85 -88 218 -119
295 -32 77 -99 244 -150 370 -50 127 -98 243 -106 259 -8 16 -14 33 -14 38 0
4 -9 27 -19 51 -11 23 -38 89 -61 147 -24 58 -69 170 -101 249 -33 80 -59 151
-59 158 0 7 -5 13 -10 13 -6 0 -9 3 -8 8 0 4 -2 16 -7 27 -4 11 -21 54 -37 95
-16 41 -36 89 -43 105 -7 17 -27 66 -44 110 -18 44 -41 103 -53 130 -11 28
-29 73 -41 100 -11 28 -28 69 -38 92 -11 24 -19 45 -19 48 0 4 -10 27 -21 53
-12 25 -22 51 -24 57 -1 5 -7 21 -13 35 -5 14 -48 120 -95 235 -223 554 -320
793 -332 820 -7 17 -38 91 -67 165 l-54 135 -412 3 -412 2 2 -2777z"/>
</g>
</svg>
